<svg xmlns="http://www.w3.org/2000/svg" xmlns:xlink="http://www.w3.org/1999/xlink" width="500" zoomAndPan="magnify" viewBox="0 0 375 374.999991" height="500" preserveAspectRatio="xMidYMid meet" version="1.0"><defs><g/><clipPath id="e2ba9c4b77"><rect x="0" width="268" y="0" height="87"/></clipPath></defs><g transform="matrix(1, 0, 0, 1, 60, 136)"><g clip-path="url(#e2ba9c4b77)"><g fill="#000000" fill-opacity="1"><g transform="translate(2.100574, 65.648033)"><g><path d="M 47.921875 -44.78125 C 48.066406 -44.78125 48.140625 -44.632812 48.140625 -44.34375 C 48.140625 -44.0625 48.066406 -43.921875 47.921875 -43.921875 C 46.296875 -43.921875 44.882812 -43.488281 43.6875 -42.625 C 42.5 -41.769531 41.5 -40.3125 40.6875 -38.25 L 25.4375 -0.078125 C 25.382812 0.117188 25.117188 0.21875 24.640625 0.21875 C 24.265625 0.21875 24.003906 0.117188 23.859375 -0.078125 L 6.015625 -38.828125 C 5.203125 -40.691406 4.34375 -42.003906 3.4375 -42.765625 C 2.53125 -43.535156 1.359375 -43.921875 -0.078125 -43.921875 C -0.210938 -43.921875 -0.28125 -44.0625 -0.28125 -44.34375 C -0.28125 -44.632812 -0.210938 -44.78125 -0.078125 -44.78125 L 2.65625 -44.703125 C 3.988281 -44.609375 5.0625 -44.5625 5.875 -44.5625 C 7.78125 -44.5625 9.832031 -44.609375 12.03125 -44.703125 L 14.96875 -44.78125 C 15.113281 -44.78125 15.1875 -44.632812 15.1875 -44.34375 C 15.1875 -44.0625 15.113281 -43.921875 14.96875 -43.921875 C 12.007812 -43.921875 10.53125 -43.082031 10.53125 -41.40625 C 10.53125 -40.832031 10.742188 -40.066406 11.171875 -39.109375 L 26.15625 -6.296875 L 39.046875 -38.609375 C 39.429688 -39.617188 39.625 -40.410156 39.625 -40.984375 C 39.625 -41.984375 39.164062 -42.722656 38.25 -43.203125 C 37.34375 -43.679688 35.9375 -43.921875 34.03125 -43.921875 C 33.882812 -43.921875 33.8125 -44.0625 33.8125 -44.34375 C 33.8125 -44.632812 33.882812 -44.78125 34.03125 -44.78125 L 37.109375 -44.703125 C 38.734375 -44.609375 40.210938 -44.5625 41.546875 -44.5625 C 42.554688 -44.5625 43.679688 -44.609375 44.921875 -44.703125 Z M 47.921875 -44.78125 "/></g></g></g><g fill="#000000" fill-opacity="1"><g transform="translate(72.242675, 65.648033)"><g><path d="M 13.828125 -48.578125 C 13.640625 -48.578125 13.519531 -48.679688 13.46875 -48.890625 C 13.414062 -49.109375 13.460938 -49.265625 13.609375 -49.359375 C 15.179688 -50.222656 17.785156 -51.703125 21.421875 -53.796875 C 22.273438 -54.367188 23.023438 -54.847656 23.671875 -55.234375 C 24.316406 -55.617188 24.859375 -55.929688 25.296875 -56.171875 C 25.484375 -56.265625 26.039062 -56.15625 26.96875 -55.84375 C 27.90625 -55.53125 28.707031 -55.179688 29.375 -54.796875 C 30.039062 -54.421875 30.207031 -54.207031 29.875 -54.15625 C 26.914062 -53.4375 24.203125 -52.632812 21.734375 -51.75 C 19.273438 -50.875 16.6875 -49.835938 13.96875 -48.640625 Z M 34.03125 -10.671875 C 34.03125 -10.765625 34.125 -10.8125 34.3125 -10.8125 C 34.457031 -10.8125 34.585938 -10.785156 34.703125 -10.734375 C 34.828125 -10.691406 34.890625 -10.625 34.890625 -10.53125 C 34.460938 -7.519531 34.25 -4.367188 34.25 -1.078125 C 34.25 -0.691406 34.164062 -0.414062 34 -0.25 C 33.832031 -0.0820312 33.53125 0 33.09375 0 L 3.078125 0 C 2.984375 0 2.9375 -0.140625 2.9375 -0.421875 C 2.9375 -0.710938 2.984375 -0.859375 3.078125 -0.859375 C 4.890625 -0.859375 6.210938 -0.976562 7.046875 -1.21875 C 7.890625 -1.457031 8.460938 -1.921875 8.765625 -2.609375 C 9.078125 -3.304688 9.234375 -4.367188 9.234375 -5.796875 L 9.234375 -38.96875 C 9.234375 -40.40625 9.078125 -41.457031 8.765625 -42.125 C 8.460938 -42.789062 7.890625 -43.253906 7.046875 -43.515625 C 6.210938 -43.785156 4.890625 -43.921875 3.078125 -43.921875 C 2.984375 -43.921875 2.9375 -44.0625 2.9375 -44.34375 C 2.9375 -44.632812 2.984375 -44.78125 3.078125 -44.78125 L 31.875 -44.78125 C 32.3125 -44.78125 32.53125 -44.5625 32.53125 -44.125 L 32.671875 -35.3125 C 32.671875 -35.175781 32.550781 -35.09375 32.3125 -35.0625 C 32.070312 -35.039062 31.925781 -35.101562 31.875 -35.25 C 31.738281 -37.78125 30.976562 -39.75 29.59375 -41.15625 C 28.207031 -42.5625 26.367188 -43.265625 24.078125 -43.265625 L 19.703125 -43.265625 C 18.023438 -43.265625 16.789062 -43.132812 16 -42.875 C 15.21875 -42.613281 14.671875 -42.160156 14.359375 -41.515625 C 14.046875 -40.867188 13.890625 -39.898438 13.890625 -38.609375 L 13.890625 -24.078125 L 22.640625 -24.078125 C 24.929688 -24.078125 26.566406 -24.457031 27.546875 -25.21875 C 28.523438 -25.976562 29.015625 -27.269531 29.015625 -29.09375 C 29.015625 -29.1875 29.15625 -29.234375 29.4375 -29.234375 C 29.726562 -29.234375 29.875 -29.1875 29.875 -29.09375 L 29.796875 -23.28125 C 29.796875 -21.894531 29.820312 -20.84375 29.875 -20.125 L 29.953125 -16.6875 C 29.953125 -16.59375 29.804688 -16.546875 29.515625 -16.546875 C 29.234375 -16.546875 29.09375 -16.59375 29.09375 -16.6875 C 29.09375 -18.789062 28.578125 -20.296875 27.546875 -21.203125 C 26.515625 -22.109375 24.804688 -22.5625 22.421875 -22.5625 L 13.890625 -22.5625 L 13.890625 -6.09375 C 13.890625 -4.75 14.035156 -3.765625 14.328125 -3.140625 C 14.617188 -2.523438 15.144531 -2.097656 15.90625 -1.859375 C 16.664062 -1.617188 17.859375 -1.5 19.484375 -1.5 L 25.21875 -1.5 C 27.507812 -1.5 29.414062 -2.3125 30.9375 -3.9375 C 32.46875 -5.5625 33.5 -7.804688 34.03125 -10.671875 Z M 34.03125 -10.671875 "/></g></g></g><g fill="#000000" fill-opacity="1"><g transform="translate(133.14246, 65.648033)"><g><path d="M 13.25 -6.09375 C 13.25 -4.707031 13.390625 -3.703125 13.671875 -3.078125 C 13.960938 -2.460938 14.488281 -2.046875 15.25 -1.828125 C 16.019531 -1.609375 17.265625 -1.5 18.984375 -1.5 L 26.796875 -1.5 C 29.515625 -1.5 31.6875 -2.332031 33.3125 -4 C 34.9375 -5.675781 36.007812 -8 36.53125 -10.96875 C 36.53125 -11.101562 36.660156 -11.160156 36.921875 -11.140625 C 37.191406 -11.117188 37.328125 -11.035156 37.328125 -10.890625 C 36.898438 -6.921875 36.6875 -3.648438 36.6875 -1.078125 C 36.6875 -0.691406 36.613281 -0.414062 36.46875 -0.25 C 36.320312 -0.0820312 36.035156 0 35.609375 0 L 2.5 0 C 2.40625 0 2.359375 -0.140625 2.359375 -0.421875 C 2.359375 -0.710938 2.40625 -0.859375 2.5 -0.859375 C 4.320312 -0.859375 5.648438 -0.976562 6.484375 -1.21875 C 7.316406 -1.457031 7.875 -1.921875 8.15625 -2.609375 C 8.445312 -3.304688 8.59375 -4.367188 8.59375 -5.796875 L 8.59375 -38.96875 C 8.59375 -40.40625 8.445312 -41.457031 8.15625 -42.125 C 7.875 -42.789062 7.316406 -43.253906 6.484375 -43.515625 C 5.648438 -43.785156 4.320312 -43.921875 2.5 -43.921875 C 2.40625 -43.921875 2.359375 -44.0625 2.359375 -44.34375 C 2.359375 -44.632812 2.40625 -44.78125 2.5 -44.78125 L 6.015625 -44.703125 C 8.023438 -44.609375 9.648438 -44.5625 10.890625 -44.5625 C 12.222656 -44.5625 13.894531 -44.609375 15.90625 -44.703125 L 19.34375 -44.78125 C 19.488281 -44.78125 19.5625 -44.632812 19.5625 -44.34375 C 19.5625 -44.0625 19.488281 -43.921875 19.34375 -43.921875 C 17.570312 -43.921875 16.269531 -43.785156 15.4375 -43.515625 C 14.601562 -43.253906 14.03125 -42.773438 13.71875 -42.078125 C 13.40625 -41.390625 13.25 -40.332031 13.25 -38.90625 Z M 13.25 -6.09375 "/></g></g></g><g fill="#000000" fill-opacity="1"><g transform="translate(193.755659, 65.648033)"><g><path d="M 50.078125 -0.859375 C 50.265625 -0.859375 50.359375 -0.710938 50.359375 -0.421875 C 50.359375 -0.140625 50.265625 0 50.078125 0 C 49.171875 0 47.757812 -0.046875 45.84375 -0.140625 C 43.9375 -0.234375 42.550781 -0.28125 41.6875 -0.28125 C 40.644531 -0.28125 39.3125 -0.234375 37.6875 -0.140625 C 36.15625 -0.046875 34.984375 0 34.171875 0 C 33.984375 0 33.890625 -0.140625 33.890625 -0.421875 C 33.890625 -0.710938 33.984375 -0.859375 34.171875 -0.859375 C 35.941406 -0.859375 37.234375 -1.023438 38.046875 -1.359375 C 38.859375 -1.691406 39.265625 -2.265625 39.265625 -3.078125 C 39.265625 -3.742188 38.953125 -4.769531 38.328125 -6.15625 L 31.953125 -19.703125 L 14.90625 -19.703125 L 10.390625 -9.09375 C 9.722656 -7.46875 9.390625 -6.15625 9.390625 -5.15625 C 9.390625 -3.675781 9.972656 -2.585938 11.140625 -1.890625 C 12.304688 -1.203125 14.0625 -0.859375 16.40625 -0.859375 C 16.644531 -0.859375 16.765625 -0.710938 16.765625 -0.421875 C 16.765625 -0.140625 16.644531 0 16.40625 0 C 15.539062 0 14.300781 -0.046875 12.6875 -0.140625 C 10.863281 -0.234375 9.285156 -0.28125 7.953125 -0.28125 C 6.710938 -0.28125 5.28125 -0.234375 3.65625 -0.140625 C 2.21875 -0.046875 1.023438 0 0.078125 0 C -0.160156 0 -0.28125 -0.140625 -0.28125 -0.421875 C -0.28125 -0.710938 -0.160156 -0.859375 0.078125 -0.859375 C 1.410156 -0.859375 2.539062 -1.109375 3.46875 -1.609375 C 4.40625 -2.109375 5.289062 -2.988281 6.125 -4.25 C 6.957031 -5.519531 7.878906 -7.351562 8.890625 -9.75 L 24 -45.421875 C 24.09375 -45.566406 24.257812 -45.640625 24.5 -45.640625 C 24.738281 -45.640625 24.882812 -45.566406 24.9375 -45.421875 L 41.84375 -9.8125 C 43.46875 -6.28125 44.851562 -3.90625 46 -2.6875 C 47.144531 -1.46875 48.503906 -0.859375 50.078125 -0.859375 Z M 15.46875 -21.140625 L 31.3125 -21.140625 L 22.921875 -38.828125 Z M 15.46875 -21.140625 "/></g></g></g></g></g><g fill="#000000" fill-opacity="1"><g transform="translate(74.400347, 227.424551)"><g><path d="M 1.6875 0 L 1.6875 -12.546875 L 3.21875 -12.546875 L 3.21875 -7.03125 L 10.65625 -7.03125 L 10.65625 -12.546875 L 12.1875 -12.546875 L 12.1875 0 L 10.65625 0 L 10.65625 -5.6875 L 3.21875 -5.6875 L 3.21875 0 Z M 1.6875 0 "/></g></g></g><g fill="#000000" fill-opacity="1"><g transform="translate(95.020734, 227.424551)"><g><path d="M 7 0.15625 C 6.101562 0.15625 5.300781 0.0078125 4.59375 -0.28125 C 3.882812 -0.582031 3.273438 -1.015625 2.765625 -1.578125 C 2.265625 -2.140625 1.878906 -2.8125 1.609375 -3.59375 C 1.335938 -4.382812 1.203125 -5.28125 1.203125 -6.28125 C 1.203125 -7.28125 1.335938 -8.171875 1.609375 -8.953125 C 1.878906 -9.742188 2.265625 -10.414062 2.765625 -10.96875 C 3.273438 -11.53125 3.882812 -11.957031 4.59375 -12.25 C 5.300781 -12.550781 6.101562 -12.703125 7 -12.703125 C 7.882812 -12.703125 8.679688 -12.550781 9.390625 -12.25 C 10.109375 -11.957031 10.722656 -11.53125 11.234375 -10.96875 C 11.742188 -10.414062 12.128906 -9.742188 12.390625 -8.953125 C 12.660156 -8.171875 12.796875 -7.285156 12.796875 -6.296875 C 12.796875 -5.304688 12.660156 -4.410156 12.390625 -3.609375 C 12.117188 -2.816406 11.726562 -2.140625 11.21875 -1.578125 C 10.71875 -1.015625 10.109375 -0.582031 9.390625 -0.28125 C 8.679688 0.0078125 7.882812 0.15625 7 0.15625 Z M 7 -1.203125 C 7.882812 -1.203125 8.640625 -1.398438 9.265625 -1.796875 C 9.890625 -2.191406 10.363281 -2.765625 10.6875 -3.515625 C 11.019531 -4.273438 11.1875 -5.195312 11.1875 -6.28125 C 11.1875 -7.375 11.023438 -8.289062 10.703125 -9.03125 C 10.378906 -9.78125 9.898438 -10.351562 9.265625 -10.75 C 8.640625 -11.144531 7.882812 -11.34375 7 -11.34375 C 6.113281 -11.34375 5.359375 -11.144531 4.734375 -10.75 C 4.117188 -10.351562 3.644531 -9.78125 3.3125 -9.03125 C 2.976562 -8.28125 2.8125 -7.363281 2.8125 -6.28125 C 2.8125 -5.195312 2.976562 -4.28125 3.3125 -3.53125 C 3.644531 -2.78125 4.117188 -2.203125 4.734375 -1.796875 C 5.359375 -1.398438 6.113281 -1.203125 7 -1.203125 Z M 7 -1.203125 "/></g></g></g><g fill="#000000" fill-opacity="1"><g transform="translate(115.74786, 227.424551)"><g><path d="M 1.71875 0 L 1.71875 -12.546875 L 3.234375 -12.546875 L 8.046875 -3.296875 L 7.703125 -3.296875 L 12.5 -12.546875 L 13.96875 -12.546875 L 13.96875 0 L 12.546875 0 L 12.546875 -10.453125 L 12.796875 -10.453125 L 8.40625 -1.953125 L 7.328125 -1.953125 L 2.90625 -10.453125 L 3.171875 -10.453125 L 3.171875 0 Z M 1.71875 0 "/></g></g></g><g fill="#000000" fill-opacity="1"><g transform="translate(138.182741, 227.424551)"><g><path d="M 1.6875 0 L 1.6875 -12.546875 L 9.75 -12.546875 L 9.75 -11.25 L 3.203125 -11.25 L 3.203125 -7.015625 L 9.375 -7.015625 L 9.375 -5.71875 L 3.203125 -5.71875 L 3.203125 -1.296875 L 9.75 -1.296875 L 9.75 0 Z M 1.6875 0 "/></g></g></g><g fill="#000000" fill-opacity="1"><g transform="translate(155.778981, 227.424551)"><g/></g></g><g fill="#000000" fill-opacity="1"><g transform="translate(167.291336, 227.424551)"><g><path d="M 5.8125 0.15625 C 5.15625 0.15625 4.53125 0.101562 3.9375 0 C 3.34375 -0.113281 2.796875 -0.273438 2.296875 -0.484375 C 1.796875 -0.703125 1.351562 -0.972656 0.96875 -1.296875 L 1.515625 -2.546875 C 1.929688 -2.234375 2.359375 -1.976562 2.796875 -1.78125 C 3.234375 -1.582031 3.703125 -1.429688 4.203125 -1.328125 C 4.703125 -1.234375 5.238281 -1.1875 5.8125 -1.1875 C 6.851562 -1.1875 7.632812 -1.382812 8.15625 -1.78125 C 8.675781 -2.1875 8.9375 -2.71875 8.9375 -3.375 C 8.9375 -3.738281 8.851562 -4.039062 8.6875 -4.28125 C 8.519531 -4.519531 8.253906 -4.722656 7.890625 -4.890625 C 7.523438 -5.054688 7.054688 -5.191406 6.484375 -5.296875 L 4.53125 -5.6875 C 3.394531 -5.925781 2.5625 -6.320312 2.03125 -6.875 C 1.507812 -7.425781 1.25 -8.148438 1.25 -9.046875 C 1.25 -9.773438 1.445312 -10.414062 1.84375 -10.96875 C 2.238281 -11.519531 2.789062 -11.945312 3.5 -12.25 C 4.21875 -12.550781 5.03125 -12.703125 5.9375 -12.703125 C 6.519531 -12.703125 7.066406 -12.644531 7.578125 -12.53125 C 8.085938 -12.425781 8.5625 -12.253906 9 -12.015625 C 9.4375 -11.785156 9.820312 -11.507812 10.15625 -11.1875 L 9.609375 -9.96875 C 9.085938 -10.457031 8.523438 -10.8125 7.921875 -11.03125 C 7.328125 -11.25 6.660156 -11.359375 5.921875 -11.359375 C 5.304688 -11.359375 4.757812 -11.265625 4.28125 -11.078125 C 3.8125 -10.890625 3.441406 -10.625 3.171875 -10.28125 C 2.910156 -9.9375 2.78125 -9.53125 2.78125 -9.0625 C 2.78125 -8.507812 2.945312 -8.078125 3.28125 -7.765625 C 3.625 -7.453125 4.195312 -7.210938 5 -7.046875 L 6.921875 -6.65625 C 8.128906 -6.414062 9.019531 -6.035156 9.59375 -5.515625 C 10.175781 -5.003906 10.46875 -4.316406 10.46875 -3.453125 C 10.46875 -2.753906 10.28125 -2.128906 9.90625 -1.578125 C 9.53125 -1.035156 8.992188 -0.609375 8.296875 -0.296875 C 7.597656 0.00390625 6.769531 0.15625 5.8125 0.15625 Z M 5.8125 0.15625 "/></g></g></g><g fill="#000000" fill-opacity="1"><g transform="translate(185.332304, 227.424551)"><g><path d="M 1.6875 0 L 1.6875 -12.546875 L 9.75 -12.546875 L 9.75 -11.25 L 3.203125 -11.25 L 3.203125 -7.015625 L 9.375 -7.015625 L 9.375 -5.71875 L 3.203125 -5.71875 L 3.203125 -1.296875 L 9.75 -1.296875 L 9.75 0 Z M 1.6875 0 "/></g></g></g><g fill="#000000" fill-opacity="1"><g transform="translate(202.928544, 227.424551)"><g><path d="M 1.6875 0 L 1.6875 -12.546875 L 6.765625 -12.546875 C 8.117188 -12.546875 9.15625 -12.234375 9.875 -11.609375 C 10.601562 -10.984375 10.96875 -10.09375 10.96875 -8.9375 C 10.96875 -8.21875 10.816406 -7.601562 10.515625 -7.09375 C 10.222656 -6.582031 9.800781 -6.1875 9.25 -5.90625 C 8.695312 -5.625 8.035156 -5.457031 7.265625 -5.40625 L 7.390625 -5.546875 L 7.65625 -5.53125 C 8.03125 -5.507812 8.359375 -5.390625 8.640625 -5.171875 C 8.929688 -4.953125 9.207031 -4.601562 9.46875 -4.125 L 11.671875 0 L 10 0 L 7.859375 -3.96875 C 7.679688 -4.3125 7.484375 -4.570312 7.265625 -4.75 C 7.054688 -4.9375 6.8125 -5.066406 6.53125 -5.140625 C 6.257812 -5.210938 5.925781 -5.25 5.53125 -5.25 L 3.21875 -5.25 L 3.21875 0 Z M 3.21875 -6.5 L 6.609375 -6.5 C 7.566406 -6.5 8.28125 -6.695312 8.75 -7.09375 C 9.21875 -7.5 9.453125 -8.101562 9.453125 -8.90625 C 9.453125 -9.695312 9.210938 -10.285156 8.734375 -10.671875 C 8.265625 -11.066406 7.539062 -11.265625 6.5625 -11.265625 L 3.21875 -11.265625 Z M 3.21875 -6.5 "/></g></g></g><g fill="#000000" fill-opacity="1"><g transform="translate(222.001278, 227.424551)"><g><path d="M 5.46875 0 L 0.015625 -12.546875 L 1.65625 -12.546875 L 6.359375 -1.515625 L 6 -1.515625 L 10.671875 -12.546875 L 12.28125 -12.546875 L 6.828125 0 Z M 5.46875 0 "/></g></g></g><g fill="#000000" fill-opacity="1"><g transform="translate(241.038432, 227.424551)"><g><path d="M 1.6875 0 L 1.6875 -12.546875 L 3.21875 -12.546875 L 3.21875 0 Z M 1.6875 0 "/></g></g></g><g fill="#000000" fill-opacity="1"><g transform="translate(252.693106, 227.424551)"><g><path d="M 7.09375 0.15625 C 5.875 0.15625 4.828125 -0.101562 3.953125 -0.625 C 3.078125 -1.144531 2.398438 -1.882812 1.921875 -2.84375 C 1.441406 -3.8125 1.203125 -4.957031 1.203125 -6.28125 C 1.203125 -7.613281 1.441406 -8.753906 1.921875 -9.703125 C 2.398438 -10.660156 3.078125 -11.398438 3.953125 -11.921875 C 4.828125 -12.441406 5.875 -12.703125 7.09375 -12.703125 C 7.96875 -12.703125 8.769531 -12.566406 9.5 -12.296875 C 10.226562 -12.035156 10.847656 -11.644531 11.359375 -11.125 L 10.765625 -9.890625 C 10.222656 -10.390625 9.65625 -10.75 9.0625 -10.96875 C 8.476562 -11.195312 7.832031 -11.3125 7.125 -11.3125 C 5.757812 -11.3125 4.695312 -10.878906 3.9375 -10.015625 C 3.1875 -9.148438 2.8125 -7.90625 2.8125 -6.28125 C 2.8125 -4.664062 3.1875 -3.421875 3.9375 -2.546875 C 4.695312 -1.671875 5.757812 -1.234375 7.125 -1.234375 C 7.832031 -1.234375 8.476562 -1.34375 9.0625 -1.5625 C 9.65625 -1.789062 10.222656 -2.15625 10.765625 -2.65625 L 11.359375 -1.421875 C 10.847656 -0.910156 10.226562 -0.519531 9.5 -0.25 C 8.769531 0.0195312 7.96875 0.15625 7.09375 0.15625 Z M 7.09375 0.15625 "/></g></g></g><g fill="#000000" fill-opacity="1"><g transform="translate(271.694691, 227.424551)"><g><path d="M 1.6875 0 L 1.6875 -12.546875 L 9.75 -12.546875 L 9.75 -11.25 L 3.203125 -11.25 L 3.203125 -7.015625 L 9.375 -7.015625 L 9.375 -5.71875 L 3.203125 -5.71875 L 3.203125 -1.296875 L 9.75 -1.296875 L 9.75 0 Z M 1.6875 0 "/></g></g></g><g fill="#000000" fill-opacity="1"><g transform="translate(289.290919, 227.424551)"><g><path d="M 5.8125 0.15625 C 5.15625 0.15625 4.53125 0.101562 3.9375 0 C 3.34375 -0.113281 2.796875 -0.273438 2.296875 -0.484375 C 1.796875 -0.703125 1.351562 -0.972656 0.96875 -1.296875 L 1.515625 -2.546875 C 1.929688 -2.234375 2.359375 -1.976562 2.796875 -1.78125 C 3.234375 -1.582031 3.703125 -1.429688 4.203125 -1.328125 C 4.703125 -1.234375 5.238281 -1.1875 5.8125 -1.1875 C 6.851562 -1.1875 7.632812 -1.382812 8.15625 -1.78125 C 8.675781 -2.1875 8.9375 -2.71875 8.9375 -3.375 C 8.9375 -3.738281 8.851562 -4.039062 8.6875 -4.28125 C 8.519531 -4.519531 8.253906 -4.722656 7.890625 -4.890625 C 7.523438 -5.054688 7.054688 -5.191406 6.484375 -5.296875 L 4.53125 -5.6875 C 3.394531 -5.925781 2.5625 -6.320312 2.03125 -6.875 C 1.507812 -7.425781 1.25 -8.148438 1.25 -9.046875 C 1.25 -9.773438 1.445312 -10.414062 1.84375 -10.96875 C 2.238281 -11.519531 2.789062 -11.945312 3.5 -12.25 C 4.21875 -12.550781 5.03125 -12.703125 5.9375 -12.703125 C 6.519531 -12.703125 7.066406 -12.644531 7.578125 -12.53125 C 8.085938 -12.425781 8.5625 -12.253906 9 -12.015625 C 9.4375 -11.785156 9.820312 -11.507812 10.15625 -11.1875 L 9.609375 -9.96875 C 9.085938 -10.457031 8.523438 -10.8125 7.921875 -11.03125 C 7.328125 -11.25 6.660156 -11.359375 5.921875 -11.359375 C 5.304688 -11.359375 4.757812 -11.265625 4.28125 -11.078125 C 3.8125 -10.890625 3.441406 -10.625 3.171875 -10.28125 C 2.910156 -9.9375 2.78125 -9.53125 2.78125 -9.0625 C 2.78125 -8.507812 2.945312 -8.078125 3.28125 -7.765625 C 3.625 -7.453125 4.195312 -7.210938 5 -7.046875 L 6.921875 -6.65625 C 8.128906 -6.414062 9.019531 -6.035156 9.59375 -5.515625 C 10.175781 -5.003906 10.46875 -4.316406 10.46875 -3.453125 C 10.46875 -2.753906 10.28125 -2.128906 9.90625 -1.578125 C 9.53125 -1.035156 8.992188 -0.609375 8.296875 -0.296875 C 7.597656 0.00390625 6.769531 0.15625 5.8125 0.15625 Z M 5.8125 0.15625 "/></g></g></g></svg>